<svg width="193" height="89" xmlns="http://www.w3.org/2000/svg">
  <g clip-rule="evenodd" fill-rule="evenodd" id="svg_1" stroke="null" stroke-width="0">
    <path
      d="m5.67,29.33l0,12.65l37,0c4.3,0 9.8,-3.98 9.8,-10.56c0,-2.65 1.01,-4.37 -2.1,-7.87l-4.73,-5.61c-2.72,-2.53 0.32,-2.53 2.6,-2.53l15.62,0l0,26.57l12.39,0l0,-26.57l16.7,0l0,-11.38l-54.07,0c-6.58,0 -9.8,6.32 -9.62,9.61c0.18,3.29 0.79,7.42 6.26,12.4c4.98,4.53 -2.47,3.28 -3.22,3.28l-26.63,0l0,0.01zm114.68,-25.3l-19.99,0l-11.2,37.95l12.47,0l2.02,-5.32l13.15,0l1.96,5.32l12.21,0l-10.62,-37.95zm-13.92,23.52l4.3,-13.91l4.05,13.91l-8.35,0zm64.01,1.78c-4.8,0 -4.8,-1.78 -4.8,-1.78c4.12,0 7.77,-6 7.77,-12.14s-6,-11.38 -10.81,-11.38l-26.89,0l0,37.95l13.66,0l0,-12.65s5.82,6.83 8.86,9.61c3.03,2.78 3.28,3.04 7.41,3.04l21.44,0l0,-12.65c0.01,0 -11.83,0 -16.64,0zm-12.39,-8.86l-8.68,0l0,-6.83l8.68,0c3.97,0 4.66,6.83 0,6.83zm-152.38,26.31l13.98,0l3.54,12.65l3.29,-12.65l14.67,0l3.8,12.65l3.8,-12.65l12.14,0l-11.13,37.96l-11.14,0l-4.87,-17.97l-5.5,17.97l-11.39,0l-11.19,-37.96zm83.91,0.22l-19.99,0l-11.2,37.94l12.47,0l2.02,-5.31l13.16,0l1.95,5.31l12.21,0l-10.62,-37.94zm-13.92,23.52l4.3,-13.91l4.05,13.91l-8.35,0zm95.03,-12.35c-2.27,0 -4.75,0.27 -2.04,2.79l4.74,5.61c3.11,3.5 3.05,4.96 3.05,7.61c0,6.58 -6.5,10.56 -10.8,10.56l-29.9,0.2c-4.12,0 -4.37,-0.26 -7.41,-3.04c-3.03,-2.78 -8.85,-9.61 -8.85,-9.61l0,12.65l-13.66,0l0,-37.95l26.89,0c4.8,0 10.81,5.24 10.81,11.38c0,6.14 -3.66,12.14 -7.78,12.14c0,0 1.81,1.83 4.85,1.83c3.04,0 14.73,0.01 14.73,0.01c0.75,0 8.2,1.24 3.21,-3.29c-5.46,-4.97 -6.07,-9.11 -6.25,-12.4s2.66,-9.88 9.24,-9.88l25.57,0l0,11.39l-16.39,0l0,0l-0.01,0zm-42.54,5.26l-8.67,0l0,-6.83l8.67,0c3.98,0 4.66,6.83 0,6.83z"
      fill="#ffffff" id="svg_3" stroke="null" />
  </g>

</svg>